<?xml version="1.0" standalone="no"?><!DOCTYPE svg PUBLIC "-//W3C//DTD SVG 1.1//EN" "http://www.w3.org/Graphics/SVG/1.1/DTD/svg11.dtd"><svg t="1586425445031" class="icon" viewBox="0 0 1024 1024" version="1.1" xmlns="http://www.w3.org/2000/svg" p-id="9158" width="128" height="128" xmlns:xlink="http://www.w3.org/1999/xlink"><defs><style type="text/css"></style></defs><path d="M197.973333 651.52v205.653333a39.253333 39.253333 0 0 0 39.253334 38.826667h239.786666v-244.48zM546.986667 896h239.786666a39.253333 39.253333 0 0 0 39.253334-38.826667v-205.653333h-279.04zM857.6 302.506667h-78.506667a120.32 120.32 0 0 0 12.373334-52.48A122.453333 122.453333 0 0 0 669.013333 128 179.626667 179.626667 0 0 0 512 237.653333 179.626667 179.626667 0 0 0 354.986667 128a122.453333 122.453333 0 0 0-122.453334 122.026667 120.32 120.32 0 0 0 12.373334 52.48H166.4c-21.333333 0-38.4 25.173333-38.4 55.893333v167.68c0 30.72 17.066667 55.893333 38.4 55.893333h310.613333V302.506667h69.973334v279.466666h310.613333c21.333333 0 38.4-25.173333 38.4-55.893333V358.4c0-30.72-17.066667-55.893333-38.4-55.893333z m-502.613333 0a52.48 52.48 0 1 1 0-104.533334c59.733333 0 93.44 61.44 110.08 104.533334z m314.026666 0H558.933333c16.64-42.666667 50.346667-104.533333 110.08-104.533334a52.48 52.48 0 1 1 0 104.533334z" p-id="9159"></path></svg>