<?xml version="1.0" standalone="no"?><!DOCTYPE svg PUBLIC "-//W3C//DTD SVG 1.1//EN" "http://www.w3.org/Graphics/SVG/1.1/DTD/svg11.dtd"><svg t="1586584498359" class="icon" viewBox="0 0 1024 1024" version="1.1" xmlns="http://www.w3.org/2000/svg" p-id="7007" xmlns:xlink="http://www.w3.org/1999/xlink" width="128" height="128"><defs><style type="text/css"></style></defs><path d="M59.392 366.592l0 598.016 598.016 0c169.662464 0 307.2-137.537536 307.2-307.2L964.608 59.392 366.592 59.392C196.929536 59.392 59.392 196.929536 59.392 366.592zM806.2464 214.528c9.071616 9.565184 13.6192 25.8048 13.6192 48.7424l0 496.0256c0 22.9376-4.547584 39.424-13.6192 49.4592-9.08288 10.0352-25.088 15.0528-48.0256 15.0528l-493.8752 0c-23.41888 0-39.312384-5.0176-47.668224-15.0528-8.36608-10.0352-12.544-26.5216-12.544-49.4592L204.133376 263.2704c0-22.9376 4.17792-39.177216 12.544-48.7424 8.35584-9.55392 24.24832-14.336 47.668224-14.336l493.8752 0C781.1584 200.192 797.16352 204.97408 806.2464 214.528z" p-id="7008"></path><path d="M258.6112 263.2704l0 494.592c0 7.168 1.903616 10.752 5.7344 10.752l493.1584 0c4.770816 0 7.168-3.584 7.168-10.752l0-494.592c0-6.204416-2.39616-9.3184-7.168-9.3184l-493.1584 0C260.51584 253.952 258.6112 257.065984 258.6112 263.2704zM274.7392 646.7584c3.584-7.168 13.2608-15.287296 29.0304-24.3712 19.58912-11.4688 38.460416-23.6544 56.6272-36.5568 18.15552-12.9024 35.95264-26.991616 53.4016-42.2912 17.43872-15.287296 34.87744-32.009216 52.3264-50.176 17.43872-18.15552 35.234816-38.46144 53.402624-60.928l-212.8896 0c-17.68448 0-26.5216-8.6016-26.5216-25.8048 0-8.6016 1.90464-15.0528 5.7344-19.3536 3.818496-4.3008 10.752-6.4512 20.7872-6.4512l256.6144 0 0-93.184c0-8.6016 2.38592-15.0528 7.168-19.3536 4.770816-4.3008 11.222016-6.4512 19.3536-6.4512 8.6016 0 15.522816 1.91488 20.7872 5.7344 5.25312 3.830784 7.8848 10.517504 7.8848 20.0704l0 93.184 104.6528 0c10.0352 0 17.204224 2.1504 21.504 6.4512 4.3008 4.3008 6.450176 10.752 6.450176 19.3536 0 17.2032-9.3184 25.8048-27.9552 25.8048l-104.6528 0 0 226.5088c0 61.6448-24.61696 92.4672-73.8304 92.4672-10.517504 0-24.3712-1.91488-41.5744-5.7344-17.2032-3.82976-38.7072-10.281984-64.512-19.3536-13.38368-4.78208-21.392384-9.800704-24.013824-15.0528-2.63168-5.25312-2.038784-12.42112 1.792-21.504 7.168-17.2032 19.823616-22.45632 37.9904-15.7696 20.54144 8.13056 37.632 13.865984 51.2512 17.2032 13.6192 3.349504 25.916416 5.0176 36.9152 5.0176 8.119296 0 13.6192-4.054016 16.4864-12.1856 2.8672-8.119296 4.3008-20.0704 4.3008-35.84L563.250176 459.6736c-34.88768 46.35648-70.9632 86.49728-108.2368 120.4224-37.2736 33.93536-77.17888 64.27648-119.704576 91.0336-15.299584 9.565184-27.485184 14.459904-36.557824 14.6944-9.08288 0.24576-16.25088-4.6592-21.504-14.6944C271.983616 662.057984 271.1552 653.9264 274.7392 646.7584z" p-id="7009"></path></svg>